<svg width="36" height="36" viewBox="0 0 36 36" fill="none" xmlns="http://www.w3.org/2000/svg">
<path fill-rule="evenodd" clip-rule="evenodd" d="M34.4985 21.1968V21.2028V21.2055C34.4985 21.2275 34.4972 21.2488 34.4945 21.2708C34.4694 21.462 33.7788 25.9463 24.5992 25.9463C21.365 25.9463 18.8573 25.7631 16.8403 25.6152L16.8247 25.6139C15.3987 25.5093 14.1672 25.4194 13.0489 25.4194C12.9547 25.4194 12.8009 25.424 12.6077 25.43L12.561 25.4314H12.5562C11.5667 25.462 9.51513 25.5253 7.4107 25.2795C4.73899 24.967 2.80467 24.2535 1.66062 23.1582C1.57387 23.0749 1.51897 22.967 1.50406 22.8497C1.48915 22.7331 1.51558 22.6152 1.57861 22.5146L3.17608 19.965C3.29401 19.3007 3.97719 15.2467 3.43024 13.0975C3.34823 12.7637 3.40042 12.4133 3.57528 12.1141C3.75014 11.815 4.03615 11.5905 4.37571 11.4832C4.71594 11.3759 5.08532 11.3953 5.41132 11.5365C5.73732 11.6777 5.99622 11.9309 6.1372 12.246C6.57841 13.2314 7.56184 14.8843 9.19997 14.8843C10.4409 14.8843 10.9859 14.4179 11.6168 13.8776L11.6175 13.877C11.7083 13.7997 11.8012 13.7204 11.8968 13.6418C11.7836 12.8676 11.9672 11.6065 13.295 10.759C13.991 10.3146 14.8023 10.4426 15.7064 11.1388C16.3733 11.6531 17.0389 12.4226 17.6821 13.1674C18.3029 13.8856 18.9447 14.6278 19.4524 14.9576L19.9654 15.2321L19.9668 15.2327C22.2149 16.4359 24.7633 17.7997 26.3397 18.0515C27.1266 18.1775 27.9975 18.2428 28.8406 18.306C30.2199 18.41 31.5232 18.5072 32.5473 18.8504C33.8391 19.2827 34.4951 20.0722 34.4985 21.1968ZM16.5211 13.4779C15.5749 12.3946 14.4987 11.2567 13.9049 11.6358C13.2604 12.0475 13.0442 12.5678 12.9866 12.9796C13.3573 12.8423 13.7518 12.7737 14.1496 12.7777C14.7488 12.7777 15.5614 13.0482 16.5211 13.4779ZM24.5992 24.8924C28.8982 24.8924 31.0698 23.8524 32.1352 22.9803C32.4443 22.7305 32.7167 22.442 32.9451 22.1222C31.4391 22.6032 28.7098 23.3121 25.6992 23.3121C21.1732 23.3121 16.1076 22.2095 12.8761 21.1782C10.1156 20.2967 5.2351 20.5706 4.02667 20.6552L2.75588 22.6838C5.23985 24.6046 10.6843 24.4353 12.5264 24.378H12.5291C12.7534 24.3714 12.931 24.3654 13.0503 24.3654C14.2099 24.3654 15.4611 24.4567 16.9094 24.5633C18.9095 24.7098 21.3989 24.8924 24.5992 24.8924ZM18.9319 21.5839C21.1257 21.9843 23.4809 22.2588 25.6992 22.2588C29.1544 22.2588 32.3019 21.2421 33.3579 20.8624C33.08 19.7658 31.3897 19.5546 28.7546 19.3567C27.8884 19.2921 26.9931 19.2248 26.1588 19.0915C25.9459 19.0562 25.7352 19.0109 25.5271 18.955L24.4379 19.9983L23.6599 19.2534L24.3702 18.5732C23.8679 18.38 23.3386 18.1468 22.7917 17.8877L21.6876 18.945L20.9095 18.2001L21.7642 17.382C21.0424 17.0162 20.305 16.6225 19.5723 16.2307L18.3876 17.3653L17.6109 16.6192L18.5747 15.6964C17.8142 15.2927 17.0477 14.8956 16.355 14.5718L15.089 15.7844L14.3109 15.0395L15.2794 14.1108C14.8145 13.9356 14.4241 13.831 14.1496 13.831C13.3207 13.831 12.8931 14.1981 12.3509 14.6624C11.6873 15.2307 10.8618 15.9383 9.19997 15.9383C8.22604 15.9383 6.40152 15.5126 5.12598 12.6611C5.09413 12.5891 5.03517 12.5305 4.96061 12.4979C4.88606 12.4652 4.80202 12.4599 4.7234 12.4832C4.64546 12.5065 4.57904 12.5572 4.53769 12.6245C4.49635 12.6924 4.48212 12.7724 4.49906 12.849C5.01009 14.857 4.58039 18.1635 4.35606 19.5779C5.41335 19.5133 7.49609 19.426 9.57884 19.5725L10.9892 19.7118C11.484 19.7744 11.9754 19.8617 12.4613 19.9723L13.6589 20.3154C14.0805 20.444 14.5298 20.5732 15.0009 20.7005L16.229 21.0136C16.6858 21.1235 17.1575 21.2301 17.6407 21.3314L18.9319 21.5839Z" fill="white"/>
</svg>
